<svg width="110" height="32" viewBox="0 0 110 32" fill="none" xmlns="http://www.w3.org/2000/svg">
<rect width="61" height="32" rx="2" fill="white"/>
<path d="M8 26V23H5V5H11V23H20V5H26V23H23V26H8Z" fill="black"/>
<path d="M65 26V11H68V8H71V5H80V8H83V11H86V26H80V20H71V26H65ZM71 17H80V11H77V8H74V11H71V17Z" fill="white"/>
<path d="M95 8V5H101V8H95ZM89 26V23H95V14H92V11H101V23H107V26H89Z" fill="white"/>
<path d="M33 26V20H36V17H39V14H36V11H33V5H39V11H42V14H45V11H48V5H54V11H51V14H48V17H51V20H54V26H48V20H45V17H42V20H39V26H33Z" fill="black"/>
</svg>
